<?xml version="1.0" encoding="UTF-8"?><svg id="Layer_1" xmlns="http://www.w3.org/2000/svg" xmlns:xlink="http://www.w3.org/1999/xlink" viewBox="0 0 24 24"><defs><style>.cls-1{fill:#fff;}.cls-2{clip-path:url(#clippath);}.cls-3{fill:none;}</style><clipPath id="clippath"><rect class="cls-3" width="24" height="24"/></clipPath></defs><g class="cls-2"><path class="cls-1" d="M24,4.56c-.89,.39-1.84,.65-2.83,.78,1.02-.61,1.8-1.57,2.16-2.72-.95,.57-2,.97-3.12,1.19-.9-.96-2.19-1.56-3.59-1.56-2.72,0-4.92,2.21-4.92,4.92,0,.39,.03,.76,.11,1.12-4.09-.2-7.71-2.16-10.14-5.15-.42,.74-.67,1.58-.67,2.49,0,1.7,.88,3.21,2.19,4.09-.79-.01-1.57-.24-2.22-.61v.05c0,2.39,1.71,4.38,3.94,4.83-.4,.11-.84,.16-1.29,.16-.32,0-.63-.02-.93-.08,.64,1.95,2.45,3.38,4.6,3.43-1.67,1.31-3.8,2.1-6.1,2.1-.4,0-.79-.02-1.18-.07,2.18,1.41,4.76,2.21,7.55,2.21,9.05,0,14-7.5,14-14,0-.22,0-.43-.02-.64,.98-.69,1.8-1.56,2.47-2.55Z"/></g></svg>