<?xml version="1.0" encoding="UTF-8"?><svg id="Layer_1" xmlns="http://www.w3.org/2000/svg" xmlns:xlink="http://www.w3.org/1999/xlink" viewBox="0 0 24.04 24"><defs><style>.cls-1{fill:#fff;}.cls-2{clip-path:url(#clippath);}.cls-3{fill:none;}</style><clipPath id="clippath"><rect class="cls-3" width="24" height="24"/></clipPath></defs><g class="cls-2"><g><path class="cls-1" d="M23.98,7.06c-.06-1.28-.26-2.15-.56-2.91-.3-.81-.77-1.53-1.39-2.13-.6-.61-1.33-1.08-2.12-1.38-.76-.3-1.64-.5-2.91-.56-1.28-.06-1.69-.08-4.95-.08s-3.67,.01-4.95,.07c-1.28,.06-2.15,.26-2.91,.56-.81,.3-1.53,.77-2.13,1.39-.61,.6-1.08,1.33-1.38,2.12-.3,.76-.5,1.64-.56,2.91-.06,1.28-.08,1.69-.08,4.95s.01,3.67,.07,4.95c.06,1.28,.26,2.15,.56,2.91,.3,.81,.78,1.53,1.39,2.13,.6,.61,1.33,1.08,2.12,1.38,.76,.3,1.64,.5,2.91,.56,1.28,.06,1.69,.07,4.95,.07s3.67-.01,4.95-.07c1.28-.06,2.15-.26,2.91-.56,1.61-.62,2.89-1.9,3.51-3.51,.3-.76,.5-1.64,.56-2.91,.06-1.28,.07-1.69,.07-4.95s0-3.67-.06-4.95Zm-2.16,9.8c-.05,1.17-.25,1.81-.41,2.23-.4,1.05-1.23,1.88-2.28,2.28-.42,.16-1.06,.36-2.23,.41-1.27,.06-1.65,.07-4.85,.07s-3.59-.01-4.85-.07c-1.17-.05-1.81-.25-2.23-.41-.52-.19-.99-.5-1.38-.9-.4-.39-.7-.86-.9-1.38-.16-.42-.36-1.06-.41-2.23-.06-1.27-.07-1.65-.07-4.85s.01-3.59,.07-4.85c.05-1.17,.25-1.81,.41-2.23,.19-.52,.5-.99,.9-1.38,.39-.4,.86-.7,1.38-.9,.42-.16,1.06-.36,2.23-.41,1.27-.06,1.65-.07,4.85-.07s3.59,.01,4.85,.07c1.17,.05,1.81,.25,2.23,.41,.52,.19,.99,.5,1.38,.9,.4,.39,.7,.86,.9,1.38,.16,.42,.36,1.06,.41,2.23,.06,1.27,.07,1.65,.07,4.85s-.01,3.58-.07,4.84Z"/><path class="cls-1" d="M12.04,5.84c-3.4,0-6.17,2.76-6.17,6.17s2.76,6.17,6.17,6.17,6.17-2.76,6.17-6.17-2.76-6.17-6.17-6.17Zm0,10.16c-2.21,0-4-1.79-4-4s1.79-4,4-4,4,1.79,4,4-1.79,4-4,4Z"/><path class="cls-1" d="M19.89,5.59c0,.79-.64,1.44-1.44,1.44s-1.44-.64-1.44-1.44,.64-1.44,1.44-1.44,1.44,.64,1.44,1.44Z"/></g></g></svg>