<?xml version="1.0" encoding="UTF-8"?><svg id="Layer_1" xmlns="http://www.w3.org/2000/svg" viewBox="0 0 22.5 15.75"><defs><style>.cls-1{fill:#fff;}</style></defs><path class="cls-1" d="M22.04,2.47c-.26-.96-1.02-1.72-1.98-1.98-1.76-.48-8.8-.48-8.8-.48,0,0-7.04,0-8.8,.46C1.5,.72,.72,1.5,.46,2.47c-.46,1.76-.46,5.41-.46,5.41,0,0,0,3.67,.46,5.41,.26,.96,1.02,1.72,1.98,1.98,1.78,.48,8.8,.48,8.8,.48,0,0,7.04,0,8.8-.46,.96-.26,1.72-1.02,1.98-1.98,.46-1.76,.46-5.41,.46-5.41,0,0,.02-3.67-.46-5.43ZM9.01,11.25V4.5l5.86,3.37-5.86,3.37Z"/></svg>