<?xml version="1.0" encoding="UTF-8"?><svg id="Layer_1" xmlns="http://www.w3.org/2000/svg" xmlns:xlink="http://www.w3.org/1999/xlink" viewBox="0 0 16 16"><defs><style>.cls-1{fill:#001d5d;}.cls-2{clip-path:url(#clippath);}.cls-3{fill:none;}</style><clipPath id="clippath"><rect class="cls-3" width="16" height="16"/></clipPath></defs><g class="cls-2"><path class="cls-1" d="M3.89,15.67c-.11-.11-.19-.23-.25-.37-.06-.14-.09-.29-.09-.44s.03-.3,.09-.44c.06-.14,.14-.27,.25-.37l5.84-5.84s.05-.06,.06-.09c.02-.04,.02-.07,.02-.11s0-.08-.02-.11c-.02-.04-.04-.07-.06-.09L3.89,1.95c-.11-.11-.19-.23-.25-.37-.06-.14-.09-.29-.09-.44s.03-.3,.09-.44c.06-.14,.14-.27,.25-.37C4.1,.12,4.39,0,4.69,0s.59,.12,.81,.33l6.46,6.46c.32,.32,.5,.76,.5,1.21s-.18,.89-.5,1.21l-6.46,6.46c-.21,.21-.5,.33-.81,.33s-.59-.12-.81-.33Z"/></g></svg>