<?xml version="1.0" encoding="UTF-8"?><svg id="Layer_1" xmlns="http://www.w3.org/2000/svg" viewBox="0 0 19.43 19.43"><defs><style>.cls-1{fill:none;stroke:#001d5d;stroke-linecap:round;stroke-linejoin:round;stroke-width:1.43px;}</style></defs><path class="cls-1" d="M2.1,2.79c-.37,0-.72,.15-.98,.41-.26,.26-.41,.61-.41,.98v13.15c0,.37,.15,.72,.41,.98,.26,.26,.61,.41,.98,.41h15.23c.37,0,.72-.15,.98-.41,.26-.26,.41-.61,.41-.98V4.18c0-.37-.15-.72-.41-.98-.26-.26-.61-.41-.98-.41h-2.77"/><path class="cls-1" d="M4.87,.71V4.87"/><path class="cls-1" d="M14.56,.71V4.87"/><path class="cls-1" d="M4.87,2.79h6.92"/><path class="cls-1" d="M4.87,9.02c.38,0,.69-.31,.69-.69s-.31-.69-.69-.69-.69,.31-.69,.69,.31,.69,.69,.69Z"/><path class="cls-1" d="M9.71,9.02c.38,0,.69-.31,.69-.69s-.31-.69-.69-.69-.69,.31-.69,.69,.31,.69,.69,.69Z"/><path class="cls-1" d="M14.56,9.02c.38,0,.69-.31,.69-.69s-.31-.69-.69-.69-.69,.31-.69,.69,.31,.69,.69,.69Z"/><path class="cls-1" d="M4.87,14.56c.38,0,.69-.31,.69-.69s-.31-.69-.69-.69-.69,.31-.69,.69,.31,.69,.69,.69Z"/><path class="cls-1" d="M9.71,14.56c.38,0,.69-.31,.69-.69s-.31-.69-.69-.69-.69,.31-.69,.69,.31,.69,.69,.69Z"/></svg>