<?xml version="1.0" encoding="UTF-8"?><svg id="Layer_1" xmlns="http://www.w3.org/2000/svg" viewBox="0 0 12 6.68"><defs><style>.cls-1{fill:#001d5d;}</style></defs><path class="cls-1" d="M11.75,.25c-.08-.08-.17-.14-.28-.19-.1-.04-.22-.07-.33-.07s-.23,.02-.33,.07c-.1,.04-.2,.11-.28,.19L6.15,4.63s-.04,.04-.07,.05c-.03,.01-.06,.02-.08,.02s-.06,0-.08-.02c-.03-.01-.05-.03-.07-.05L1.47,.25c-.08-.08-.17-.14-.28-.19-.1-.04-.22-.07-.33-.07s-.23,.02-.33,.07c-.1,.04-.2,.11-.28,.19-.16,.16-.25,.38-.25,.6s.09,.44,.25,.6L5.09,6.3c.24,.24,.57,.38,.91,.38s.67-.14,.91-.38L11.75,1.46c.16-.16,.25-.38,.25-.6s-.09-.44-.25-.6Z"/></svg>