<?xml version="1.0" encoding="UTF-8"?><svg id="Layer_1" xmlns="http://www.w3.org/2000/svg" xmlns:xlink="http://www.w3.org/1999/xlink" viewBox="0 0 20 20"><defs><style>.cls-1{clip-path:url(#clippath);}.cls-2,.cls-3{fill:none;}.cls-3{stroke:#001d5d;stroke-linecap:round;stroke-linejoin:round;stroke-width:1.43px;}</style><clipPath id="clippath"><rect class="cls-2" width="20" height="20"/></clipPath></defs><g class="cls-1"><g><path class="cls-3" d="M7.14,9.29c1.97,0,3.57-1.6,3.57-3.57s-1.6-3.57-3.57-3.57-3.57,1.6-3.57,3.57,1.6,3.57,3.57,3.57Z"/><path class="cls-3" d="M.71,19.29H13.57v-.77c-.01-1.09-.3-2.16-.83-3.1-.54-.95-1.3-1.74-2.23-2.31-.93-.57-1.98-.9-3.07-.95-.1,0-.19,0-.29,0-.1,0-.19,0-.29,0-1.09,.05-2.14,.38-3.07,.95-.93,.57-1.7,1.37-2.23,2.31-.54,.95-.82,2.02-.83,3.1v.77Z"/><path class="cls-3" d="M12.86,9.29c1.97,0,3.57-1.6,3.57-3.57s-1.6-3.57-3.57-3.57"/><path class="cls-3" d="M16.43,19.29h2.86v-.77c-.01-1.09-.3-2.16-.83-3.1-.54-.95-1.3-1.74-2.23-2.31-.6-.37-1.25-.64-1.93-.79"/></g></g></svg>