<?xml version="1.0" encoding="UTF-8"?><svg id="Layer_1" xmlns="http://www.w3.org/2000/svg" xmlns:xlink="http://www.w3.org/1999/xlink" viewBox="0 0 20 20"><defs><style>.cls-1{clip-path:url(#clippath);}.cls-2,.cls-3{fill:none;}.cls-3{stroke:#001d5d;stroke-linecap:round;stroke-linejoin:round;stroke-width:1.43px;}</style><clipPath id="clippath"><rect class="cls-2" x="0" y="0" width="20" height="20"/></clipPath></defs><g class="cls-1"><g><path class="cls-3" d="M12.96,17.14c-1.08,1.1-2.48,1.82-4,2.06-1.52,.24-3.07-.02-4.44-.74-1.36-.72-2.45-1.85-3.12-3.24-.66-1.39-.86-2.95-.56-4.46,.3-1.51,1.07-2.88,2.21-3.91,1.14-1.03,2.58-1.67,4.11-1.82,1.53-.15,3.07,.2,4.38,1,1.32,.8,2.34,2,2.92,3.42"/><path class="cls-3" d="M13.57,13.57l4.29-2.14V5"/><path class="cls-3" d="M7.86,12.86c.39,0,.71-.32,.71-.71s-.32-.71-.71-.71-.71,.32-.71,.71,.32,.71,.71,.71Z"/><path class="cls-3" d="M19.29,.71h-2.86V5h2.86V.71Z"/></g></g></svg>